<svg width="101" height="74" viewBox="0 0 101 74" fill="none" xmlns="http://www.w3.org/2000/svg">
<path d="M98.8895 11.4799C97.7279 6.96116 94.3055 3.40234 89.96 2.1946C82.0836 0 50.5 0 50.5 0C50.5 0 18.9166 0 11.04 2.1946C6.69451 3.40253 3.27208 6.96116 2.11049 11.4799C0 19.6704 0 36.7591 0 36.7591C0 36.7591 0 53.8478 2.11049 62.0383C3.27208 66.557 6.69451 69.9676 11.04 71.1753C18.9166 73.3699 50.5 73.3699 50.5 73.3699C50.5 73.3699 82.0834 73.3699 89.96 71.1753C94.3055 69.9676 97.7279 66.557 98.8895 62.0383C101 53.8478 101 36.7591 101 36.7591C101 36.7591 101 19.6704 98.8895 11.4799ZM40.1704 52.2743V21.2438L66.568 36.7595L40.1704 52.2743Z" fill="black"/>
</svg>
