<svg width="73" height="73" viewBox="0 0 73 73" fill="none" xmlns="http://www.w3.org/2000/svg">
<path d="M36.5081 17.7837C26.1505 17.7837 17.796 26.1401 17.796 36.5C17.796 46.8599 26.1505 55.2163 36.5081 55.2163C46.8658 55.2163 55.2202 46.8599 55.2202 36.5C55.2202 26.1401 46.8658 17.7837 36.5081 17.7837ZM36.5081 48.668C29.8148 48.668 24.3428 43.2111 24.3428 36.5C24.3428 29.7889 29.7985 24.332 36.5081 24.332C43.2178 24.332 48.6735 29.7889 48.6735 36.5C48.6735 43.2111 43.2015 48.668 36.5081 48.668ZM60.3502 17.0181C60.3502 19.4452 58.3959 21.3836 55.9857 21.3836C53.5591 21.3836 51.6211 19.4289 51.6211 17.0181C51.6211 14.6073 53.5754 12.6526 55.9857 12.6526C58.3959 12.6526 60.3502 14.6073 60.3502 17.0181ZM72.7435 21.4488C72.4667 15.601 71.1312 10.421 66.8481 6.15324C62.5813 1.88547 57.4025 0.54976 51.556 0.256555C45.5303 -0.0855182 27.4697 -0.0855182 21.444 0.256555C15.6138 0.533471 10.435 1.86918 6.15187 6.13695C1.86877 10.4047 0.549637 15.5847 0.256497 21.4325C-0.0854992 27.4595 -0.0854992 45.5242 0.256497 51.5512C0.533352 57.399 1.86877 62.579 6.15187 66.8468C10.435 71.1145 15.5975 72.4502 21.444 72.7434C27.4697 73.0855 45.5303 73.0855 51.556 72.7434C57.4025 72.4665 62.5813 71.1308 66.8481 66.8468C71.1149 62.579 72.4504 57.399 72.7435 51.5512C73.0855 45.5242 73.0855 27.4758 72.7435 21.4488ZM64.959 58.018C63.6887 61.2107 61.2296 63.6704 58.0214 64.9572C53.2171 66.863 41.8172 66.4232 36.5081 66.4232C31.1991 66.4232 19.7829 66.8468 14.9949 64.9572C11.803 63.6867 9.34384 61.227 8.05728 58.018C6.15187 53.2127 6.59158 41.8103 6.59158 36.5C6.59158 31.1897 6.16815 19.771 8.05728 14.982C9.32755 11.7893 11.7867 9.32963 14.9949 8.04279C19.7992 6.13695 31.1991 6.57676 36.5081 6.57676C41.8172 6.57676 53.2334 6.15324 58.0214 8.04279C61.2133 9.31334 63.6724 11.773 64.959 14.982C66.8644 19.7873 66.4247 31.1897 66.4247 36.5C66.4247 41.8103 66.8644 53.229 64.959 58.018Z" fill="black"/>
</svg>
