<svg width="82" height="73" viewBox="0 0 82 73" fill="none" xmlns="http://www.w3.org/2000/svg">
<path d="M73.2143 0H8.78571C3.93527 0 0 3.50335 0 7.82143V65.1786C0 69.4967 3.93527 73 8.78571 73H73.2143C78.0647 73 82 69.4967 82 65.1786V7.82143C82 3.50335 78.0647 0 73.2143 0ZM64.2638 25.8759C64.3004 26.3321 64.3004 26.8047 64.3004 27.2609C64.3004 41.3884 52.2201 57.6667 30.146 57.6667C23.3371 57.6667 17.0223 55.9069 11.7143 52.8761C12.6844 52.9739 13.6179 53.0065 14.6063 53.0065C20.2254 53.0065 25.3871 51.3118 29.5054 48.444C24.2339 48.3462 19.8045 45.2665 18.2853 41.0299C20.1339 41.2743 21.7996 41.2743 23.7031 40.8344C18.2121 39.8404 14.0938 35.5386 14.0938 30.3406V30.2103C15.6862 31.0087 17.5531 31.4975 19.5116 31.5627C17.8651 30.5877 16.5153 29.265 15.5827 27.7126C14.6501 26.1601 14.1637 24.4263 14.167 22.6658C14.167 20.6779 14.7527 18.8529 15.796 17.2723C21.708 23.7576 30.5853 27.9942 40.5424 28.4504C38.8402 21.1993 44.9353 15.317 52.2567 15.317C55.7161 15.317 58.8277 16.6042 61.0241 18.69C63.733 18.2337 66.3321 17.3375 68.6384 16.1154C67.7415 18.5922 65.8563 20.6779 63.367 21.9978C65.783 21.7696 68.1259 21.1667 70.2857 20.3357C68.6567 22.4703 66.6067 24.3605 64.2638 25.8759Z" fill="black"/>
</svg>
